<svg width="45" height="46" viewBox="0 0 45 46" fill="none" xmlns="http://www.w3.org/2000/svg">
<path d="M38.7193 27.9307C38.5188 27.8042 38.2896 27.7305 38.053 27.7163C37.8163 27.7022 37.58 27.7481 37.3658 27.8498C36.83 28.1032 36.2388 28.217 35.6471 28.1807C35.0555 28.1443 34.4827 27.959 33.9819 27.6418C33.4811 27.3247 33.0687 26.8861 32.7828 26.3668C32.497 25.8475 32.3472 25.2644 32.3472 24.6717C32.3472 24.0789 32.497 23.4958 32.7828 22.9765C33.0687 22.4572 33.4811 22.0186 33.9819 21.7015C34.4827 21.3844 35.0555 21.199 35.6471 21.1627C36.2388 21.1263 36.83 21.2401 37.3658 21.4936C37.5802 21.5953 37.8169 21.6411 38.0537 21.6268C38.2906 21.6125 38.52 21.5384 38.7205 21.4116C38.9211 21.2847 39.0862 21.1092 39.2007 20.9013C39.3151 20.6934 39.3751 20.46 39.375 20.2227V12.7186C39.375 11.9726 39.0787 11.2573 38.5513 10.7298C38.0238 10.2024 37.3084 9.90605 36.5625 9.90605H30.1957C30.222 9.67261 30.2349 9.43785 30.2344 9.20293C30.2332 8.33864 30.0555 7.4837 29.7121 6.69054C29.3687 5.89739 28.8669 5.18274 28.2375 4.59043C27.3661 3.77201 26.2807 3.21717 25.107 2.99015C23.9333 2.76313 22.7193 2.87323 21.6055 3.30768C20.4918 3.74214 19.5239 4.48318 18.8139 5.44501C18.104 6.40683 17.681 7.55008 17.594 8.74238C17.567 9.13022 17.5752 9.5197 17.6186 9.90605H11.25C10.5041 9.90605 9.78872 10.2024 9.26127 10.7298C8.73383 11.2573 8.43751 11.9726 8.43751 12.7186V18.3822C8.20407 18.3559 7.96931 18.343 7.73439 18.3436C6.87013 18.3449 6.01525 18.5228 5.22213 18.8661C4.429 19.2095 3.71433 19.7112 3.12189 20.3404C2.52519 20.9707 2.06574 21.7179 1.77255 22.5349C1.47937 23.3518 1.35883 24.2206 1.41857 25.0865C1.51934 26.6112 2.16718 28.0482 3.24295 29.1334C4.31872 30.2185 5.75009 30.8788 7.27384 30.9928C7.66165 31.0206 8.05122 31.0124 8.43751 30.9682V36.6248C8.43751 37.3707 8.73383 38.0861 9.26127 38.6135C9.78872 39.141 10.5041 39.4373 11.25 39.4373H36.5625C37.3084 39.4373 38.0238 39.141 38.5513 38.6135C39.0787 38.0861 39.375 37.3707 39.375 36.6248V29.1207C39.3752 28.8831 39.3151 28.6493 39.2004 28.4412C39.0858 28.2331 38.9203 28.0575 38.7193 27.9307ZM36.5625 36.6248H11.25V29.1207C11.2501 28.8834 11.1901 28.6499 11.0757 28.4421C10.9612 28.2342 10.7961 28.0586 10.5955 27.9318C10.395 27.8049 10.1656 27.7309 9.92872 27.7166C9.69185 27.7022 9.45521 27.7481 9.24083 27.8498C8.70499 28.1032 8.11377 28.217 7.52214 28.1807C6.93051 28.1443 6.35768 27.959 5.8569 27.6418C5.35612 27.3247 4.94365 26.8861 4.65784 26.3668C4.37203 25.8475 4.22216 25.2644 4.22216 24.6717C4.22216 24.0789 4.37203 23.4958 4.65784 22.9765C4.94365 22.4572 5.35612 22.0186 5.8569 21.7015C6.35768 21.3844 6.93051 21.199 7.52214 21.1627C8.11377 21.1263 8.70499 21.2401 9.24083 21.4936C9.45521 21.5953 9.69185 21.6411 9.92872 21.6268C10.1656 21.6125 10.395 21.5384 10.5955 21.4116C10.7961 21.2847 10.9612 21.1092 11.0757 20.9013C11.1901 20.6934 11.2501 20.46 11.25 20.2227V12.7186H19.4572C19.6945 12.7186 19.928 12.6587 20.1359 12.5442C20.3438 12.4298 20.5193 12.2646 20.6461 12.0641C20.773 11.8635 20.847 11.6341 20.8614 11.3973C20.8757 11.1604 20.8299 10.9238 20.7281 10.7094C20.4747 10.1735 20.3609 9.58231 20.3973 8.99068C20.4336 8.39905 20.619 7.82622 20.9361 7.32544C21.2532 6.82466 21.6918 6.41219 22.2111 6.12639C22.7304 5.84058 23.3135 5.6907 23.9063 5.6907C24.499 5.6907 25.0821 5.84058 25.6014 6.12639C26.1207 6.41219 26.5593 6.82466 26.8764 7.32544C27.1936 7.82622 27.3789 8.39905 27.4153 8.99068C27.4516 9.58231 27.3378 10.1735 27.0844 10.7094C26.9826 10.9238 26.9368 11.1604 26.9511 11.3973C26.9655 11.6341 27.0395 11.8635 27.1664 12.0641C27.2932 12.2646 27.4688 12.4298 27.6766 12.5442C27.8845 12.6587 28.118 12.7186 28.3553 12.7186H36.5625V18.384C36.1762 18.3397 35.7867 18.3315 35.3988 18.3594C33.7622 18.4753 32.2345 19.2223 31.138 20.443C30.0416 21.6636 29.4622 23.2624 29.5219 24.9021C29.5816 26.5418 30.2759 28.0942 31.4583 29.2318C32.6406 30.3694 34.2186 31.0033 35.8594 30.9998C36.0943 31.0003 36.3291 30.9874 36.5625 30.9611V36.6248Z" fill="#B44957"/>
</svg>
