<svg width="31" height="32" viewBox="0 0 31 32" fill="none" xmlns="http://www.w3.org/2000/svg">
<path d="M22.2812 20.4062V22.3438C22.2812 22.6007 22.1792 22.8471 21.9975 23.0288C21.8158 23.2104 21.5694 23.3125 21.3125 23.3125C21.0556 23.3125 20.8092 23.2104 20.6275 23.0288C20.4458 22.8471 20.3438 22.6007 20.3438 22.3438V20.4062C20.3438 19.1216 19.8334 17.8896 18.925 16.9812C18.0167 16.0728 16.7846 15.5625 15.5 15.5625C14.2154 15.5625 12.9833 16.0728 12.075 16.9812C11.1666 17.8896 10.6562 19.1216 10.6562 20.4062V22.3438C10.6562 22.6007 10.5542 22.8471 10.3725 23.0288C10.1908 23.2104 9.94443 23.3125 9.6875 23.3125C9.43057 23.3125 9.18417 23.2104 9.00249 23.0288C8.82081 22.8471 8.71875 22.6007 8.71875 22.3438V20.4062C8.71875 18.6078 9.4332 16.8829 10.7049 15.6112C11.9767 14.3395 13.7015 13.625 15.5 13.625C17.2985 13.625 19.0233 14.3395 20.2951 15.6112C21.5668 16.8829 22.2812 18.6078 22.2812 20.4062ZM15.5 9.75C12.6748 9.75321 9.96617 10.8769 7.96843 12.8747C5.97069 14.8724 4.84696 17.581 4.84375 20.4062V22.3438C4.84375 22.6007 4.94581 22.8471 5.12749 23.0288C5.30917 23.2104 5.55557 23.3125 5.8125 23.3125C6.06943 23.3125 6.31583 23.2104 6.49751 23.0288C6.67919 22.8471 6.78125 22.6007 6.78125 22.3438V20.4062C6.78125 18.0939 7.69983 15.8762 9.33491 14.2412C10.97 12.6061 13.1876 11.6875 15.5 11.6875C17.8124 11.6875 20.03 12.6061 21.6651 14.2412C23.3002 15.8762 24.2188 18.0939 24.2188 20.4062V22.3438C24.2188 22.6007 24.3208 22.8471 24.5025 23.0288C24.6842 23.2104 24.9306 23.3125 25.1875 23.3125C25.4444 23.3125 25.6908 23.2104 25.8725 23.0288C26.0542 22.8471 26.1562 22.6007 26.1562 22.3438V20.4062C26.153 17.581 25.0293 14.8724 23.0316 12.8747C21.0338 10.8769 18.3252 9.75321 15.5 9.75ZM15.5 5.875C11.6474 5.87917 7.95369 7.41147 5.22946 10.1357C2.50522 12.8599 0.972917 16.5536 0.96875 20.4062V22.3438C0.96875 22.6007 1.07081 22.8471 1.25249 23.0288C1.43417 23.2104 1.68057 23.3125 1.9375 23.3125C2.19443 23.3125 2.44083 23.2104 2.62251 23.0288C2.80419 22.8471 2.90625 22.6007 2.90625 22.3438V20.4062C2.90625 17.0662 4.23309 13.8629 6.59487 11.5011C8.95666 9.13934 12.1599 7.8125 15.5 7.8125C18.8401 7.8125 22.0433 9.13934 24.4051 11.5011C26.7669 13.8629 28.0938 17.0662 28.0938 20.4062V22.3438C28.0938 22.6007 28.1958 22.8471 28.3775 23.0288C28.5592 23.2104 28.8056 23.3125 29.0625 23.3125C29.3194 23.3125 29.5658 23.2104 29.7475 23.0288C29.9292 22.8471 30.0312 22.6007 30.0312 22.3438V20.4062C30.0271 16.5536 28.4948 12.8599 25.7705 10.1357C23.0463 7.41147 19.3526 5.87917 15.5 5.875Z" fill="#FFA5B1"/>
</svg>
