<svg width="40" height="41" viewBox="0 0 40 41" fill="none" xmlns="http://www.w3.org/2000/svg">
<path d="M36.0797 26.9374C36.2448 27.2239 36.2896 27.5641 36.2044 27.8836C36.1192 28.2031 35.9109 28.4758 35.625 28.6421L20.625 37.3921C20.4339 37.5035 20.2166 37.5623 19.9953 37.5623C19.7741 37.5623 19.5568 37.5035 19.3656 37.3921L4.36563 28.6421C4.0839 28.4728 3.88018 28.1993 3.79859 27.8809C3.717 27.5625 3.7641 27.2248 3.92969 26.9409C4.09528 26.657 4.36603 26.4497 4.68333 26.3639C5.00062 26.2782 5.33893 26.3208 5.625 26.4827L20 34.8655L34.375 26.4827C34.6615 26.3176 35.0018 26.2727 35.3213 26.358C35.6408 26.4432 35.9135 26.6515 36.0797 26.9374ZM34.375 18.9827L20 27.3655L5.625 18.9827C5.34038 18.841 5.01246 18.8131 4.70798 18.9046C4.40349 18.9961 4.14534 19.2003 3.98605 19.4754C3.82676 19.7506 3.77832 20.0761 3.85058 20.3857C3.92284 20.6954 4.11037 20.9658 4.375 21.1421L19.375 29.8921C19.5661 30.0035 19.7834 30.0623 20.0047 30.0623C20.2259 30.0623 20.4432 30.0035 20.6344 29.8921L35.6344 21.1421C35.7785 21.0606 35.9049 20.9512 36.0064 20.8205C36.1079 20.6897 36.1824 20.5401 36.2255 20.3803C36.2687 20.2205 36.2798 20.0537 36.258 19.8896C36.2362 19.7255 36.182 19.5674 36.0986 19.4244C36.0152 19.2814 35.9043 19.1564 35.7722 19.0566C35.6401 18.9569 35.4895 18.8843 35.3291 18.8432C35.1688 18.8022 35.0019 18.7933 34.8381 18.8173C34.6743 18.8412 34.5169 18.8974 34.375 18.9827ZM3.75 12.5624C3.7505 12.3434 3.80849 12.1285 3.91818 11.939C4.02786 11.7495 4.18539 11.5922 4.375 11.4827L19.375 2.73269C19.5661 2.62123 19.7834 2.5625 20.0047 2.5625C20.2259 2.5625 20.4432 2.62123 20.6344 2.73269L35.6344 11.4827C35.8231 11.5928 35.9796 11.7504 36.0884 11.9398C36.1972 12.1293 36.2545 12.3439 36.2545 12.5624C36.2545 12.7808 36.1972 12.9955 36.0884 13.1849C35.9796 13.3744 35.8231 13.532 35.6344 13.6421L20.6344 22.3921C20.4432 22.5035 20.2259 22.5623 20.0047 22.5623C19.7834 22.5623 19.5661 22.5035 19.375 22.3921L4.375 13.6421C4.18539 13.5326 4.02786 13.3752 3.91818 13.1858C3.80849 12.9963 3.7505 12.7813 3.75 12.5624ZM7.48125 12.5624L20 19.8655L32.5188 12.5624L20 5.25925L7.48125 12.5624Z" fill="#B44957"/>
</svg>
