<svg width="30" height="30" viewBox="0 0 30 30" fill="none" xmlns="http://www.w3.org/2000/svg">
<path d="M26.6391 3.36094C26.4033 3.12532 26.109 2.9568 25.7864 2.87276C25.4638 2.78872 25.1247 2.7922 24.8039 2.88282H24.7863L2.29336 9.70782C1.9282 9.81306 1.60363 10.0268 1.36268 10.3206C1.12172 10.6145 0.975751 10.9747 0.944108 11.3534C0.912465 11.7321 0.996643 12.1114 1.18549 12.4412C1.37433 12.771 1.65893 13.0356 2.00156 13.2L11.9531 18.0469L16.793 27.9926C16.9435 28.3138 17.1828 28.5853 17.4827 28.7749C17.7825 28.9645 18.1304 29.0643 18.4852 29.0625C18.5391 29.0625 18.593 29.0602 18.6469 29.0555C19.0253 29.0248 19.3853 28.8792 19.6785 28.6381C19.9718 28.397 20.1843 28.072 20.2875 27.7066L27.1078 5.21368V5.1961C27.1996 4.87614 27.2046 4.5375 27.1222 4.21498C27.0398 3.89246 26.8731 3.59769 26.6391 3.36094ZM18.4957 27.1699L18.4898 27.1863V27.1781L13.7953 17.5336L19.4203 11.9086C19.5887 11.7314 19.6812 11.4953 19.6781 11.2509C19.6749 11.0064 19.5764 10.7728 19.4036 10.6C19.2307 10.4271 18.9971 10.3286 18.7526 10.3255C18.5082 10.3223 18.2722 10.4148 18.0949 10.5832L12.4699 16.2082L2.82187 11.5137H2.81367H2.83008L25.3125 4.68751L18.4957 27.1699Z" fill="#E1FBAA"/>
</svg>
