<svg width="36" height="35" viewBox="0 0 36 35" fill="none" xmlns="http://www.w3.org/2000/svg">
<path d="M17.625 24.625V31.5M8 24.625H27.25V22.205C27.2497 21.6934 27.1067 21.192 26.8371 20.7572C26.5675 20.3224 26.1819 19.9714 25.7237 19.7437L23.2763 18.5063C22.8181 18.2786 22.4325 17.9276 22.1629 17.4928C21.8933 17.058 21.7503 16.5566 21.75 16.045V9.5H23.125C23.8543 9.5 24.5538 9.21027 25.0695 8.69454C25.5853 8.17882 25.875 7.47935 25.875 6.75C25.875 6.02065 25.5853 5.32118 25.0695 4.80546C24.5538 4.28973 23.8543 4 23.125 4H12.125C11.3957 4 10.6962 4.28973 10.1805 4.80546C9.66473 5.32118 9.375 6.02065 9.375 6.75C9.375 7.47935 9.66473 8.17882 10.1805 8.69454C10.6962 9.21027 11.3957 9.5 12.125 9.5H13.5V16.045C13.4997 16.5566 13.3567 17.058 13.0871 17.4928C12.8175 17.9276 12.4319 18.2786 11.9737 18.5063L9.52625 19.7437C9.06808 19.9714 8.68251 20.3224 8.41288 20.7572C8.14326 21.192 8.00027 21.6934 8 22.205V24.625Z" stroke="#9FADF2" stroke-width="3" stroke-linecap="round" stroke-linejoin="round"/>
</svg>
