<svg width="24" height="24" viewBox="0 0 24 24" fill="none" xmlns="http://www.w3.org/2000/svg">
<path d="M8 18H18M11 18C16.5 15.5 11.8 11.6 14 8" stroke="black" stroke-width="2" stroke-linecap="round" stroke-linejoin="round"/>
<path d="M10.5 7.4C11.6 8.2 12.3 9.6 12.8 11.1C10.8 11.5 9.3 11.5 8 10.8C6.8 10.2 5.7 8.9 5 6.6C7.8 6.1 9.4 6.6 10.5 7.4ZM15.1 4C14.3376 5.19156 13.9541 6.58615 14 8C15.9 7.9 17.3 7.4 18.3 6.6C19.3 5.6 19.9 4.3 20 2C17.3 2.1 16 3 15.1 4Z" stroke="black" stroke-width="2" stroke-linecap="round" stroke-linejoin="round"/>
</svg>
