<svg width="22" height="22" viewBox="0 0 22 22" fill="none" xmlns="http://www.w3.org/2000/svg">
<g clip-path="url(#clip0_823_925)">
<path d="M12.8334 6.41683L15.5834 9.16683M4.58339 5.50016V9.16683M17.4167 12.8335V16.5002M9.16673 1.8335V3.66683M6.41673 7.3335H2.75006M19.2501 14.6668H15.5834M10.0834 2.75016H8.25006M19.8367 3.33683L18.6634 2.1635C18.5603 2.05929 18.4375 1.97656 18.3022 1.9201C18.1668 1.86364 18.0217 1.83457 17.8751 1.83457C17.7284 1.83457 17.5833 1.86364 17.448 1.9201C17.3126 1.97656 17.1899 2.05929 17.0867 2.1635L2.16339 17.0868C2.05919 17.19 1.97646 17.3127 1.92 17.4481C1.86354 17.5834 1.83447 17.7285 1.83447 17.8752C1.83447 18.0218 1.86354 18.1669 1.92 18.3023C1.97646 18.4376 2.05919 18.5604 2.16339 18.6635L3.33673 19.8368C3.43923 19.9422 3.5618 20.0259 3.6972 20.0831C3.8326 20.1402 3.97809 20.1697 4.12506 20.1697C4.27204 20.1697 4.41752 20.1402 4.55292 20.0831C4.68832 20.0259 4.81089 19.9422 4.91339 19.8368L19.8367 4.9135C19.9421 4.81099 20.0258 4.68842 20.0829 4.55302C20.1401 4.41762 20.1696 4.27214 20.1696 4.12516C20.1696 3.97819 20.1401 3.8327 20.0829 3.6973C20.0258 3.5619 19.9421 3.43933 19.8367 3.33683Z" stroke="black" stroke-width="2" stroke-linecap="round" stroke-linejoin="round"/>
</g>
<defs>
<clipPath id="clip0_823_925">
<rect width="22" height="22" fill="white"/>
</clipPath>
</defs>
</svg>
