<svg width="24" height="25" viewBox="0 0 24 25" fill="none" xmlns="http://www.w3.org/2000/svg">
<path d="M12 20.8303H21M15 5.8303L18 8.8303M16.5 4.3303C16.8978 3.93248 17.4374 3.70898 18 3.70898C18.2786 3.70898 18.5544 3.76385 18.8118 3.87046C19.0692 3.97707 19.303 4.13332 19.5 4.3303C19.697 4.52729 19.8532 4.76114 19.9598 5.01851C20.0665 5.27588 20.1213 5.55173 20.1213 5.8303C20.1213 6.10888 20.0665 6.38473 19.9598 6.6421C19.8532 6.89947 19.697 7.13332 19.5 7.3303L7 19.8303L3 20.8303L4 16.8303L16.5 4.3303Z" stroke="black" stroke-width="2" stroke-linecap="round" stroke-linejoin="round"/>
</svg>
