<svg width="50" height="50" viewBox="0 0 50 50" fill="none" xmlns="http://www.w3.org/2000/svg">
<g id="gridicons:quote">
<path id="Vector" d="M26.6832 17.1728C26.6832 19.0062 27.1623 20.5437 28.1207 21.7916C28.7998 22.6499 29.7207 23.2145 30.8853 23.4833C32.0311 23.7499 33.1144 23.7687 34.0936 23.5416C34.4269 25.5208 33.8853 27.6166 32.5103 29.8374C31.1353 32.0562 29.354 33.727 27.1811 34.8437L30.4748 39.5833C32.1415 38.7583 33.7248 37.7124 35.1832 36.4478C36.6623 35.1833 37.9748 33.7291 39.1415 32.0853C40.3082 30.4416 41.1832 28.5853 41.7457 26.4812C42.3082 24.377 42.4644 22.2312 42.1957 20.0228C41.8457 17.1062 40.904 14.7728 39.3707 13.0437C37.8394 11.2916 35.929 10.4166 33.6457 10.4166C31.6353 10.4166 29.9665 11.0208 28.6457 12.2458C27.3373 13.4458 26.6873 15.0895 26.6873 17.1791L26.6832 17.1728ZM7.67484 17.1728C7.67484 19.0062 8.15401 20.5437 9.11234 21.7916C9.79151 22.6666 10.7165 23.2333 11.8769 23.4937C13.0436 23.752 14.1123 23.7645 15.0853 23.5395C15.4186 25.4978 14.8978 27.602 13.5186 29.8312C12.1436 32.0395 10.3665 33.7062 8.19359 34.8312L11.479 39.5833C13.1457 38.7583 14.7186 37.7124 16.1873 36.4478C17.68 35.1645 19.0056 33.6989 20.1332 32.0853C21.2915 30.4395 22.154 28.5853 22.7165 26.4812C23.2857 24.3783 23.4392 22.1845 23.1686 20.0228C22.8228 17.1062 21.8853 14.7728 20.3561 13.0437C18.829 11.3062 16.9248 10.4353 14.6415 10.4353C12.6269 10.4353 10.9582 11.0395 9.63734 12.2624C8.33109 13.4624 7.67484 15.1062 7.67484 17.1958V17.1728Z" fill="#BA8FFF"/>
</g>
</svg>
